<svg xmlns="http://www.w3.org/2000/svg" enable-background="new 0 0 512 512" viewBox="0 0 512 512" id="resume">
  <path fill="#e0e6e9" d="M436,66.68v378.64c0,27.99-22.69,50.68-50.68,50.68H126.68C98.69,496,76,473.31,76,445.32V66.68
				C76,38.69,98.69,16,126.68,16h258.64C413.31,16,436,38.69,436,66.68z"></path>
  <circle cx="173.5" cy="91" r="30" fill="#6e7889"></circle>
  <path fill="#c2ced4" d="M385.317,511H126.683C90.465,511,61,481.535,61,445.317V66.683C61,30.465,90.465,1,126.683,1
				h258.635C421.535,1,451,30.465,451,66.683v378.635C451,481.535,421.535,511,385.317,511z M126.683,31
				C107.007,31,91,47.007,91,66.683v378.635C91,464.993,107.007,481,126.683,481h258.635C404.993,481,421,464.993,421,445.317
				V66.683C421,47.007,404.993,31,385.317,31H126.683z"></path>
  <path fill="#68aef9" d="M211,188.5c-8.284,0-15-6.716-15-15c0-12.406-10.094-22.5-22.5-22.5S151,161.094,151,173.5
				c0,8.284-6.716,15-15,15s-15-6.716-15-15c0-28.948,23.552-52.5,52.5-52.5s52.5,23.552,52.5,52.5
				C226,181.784,219.284,188.5,211,188.5z"></path>
  <path fill="#c2ced4" d="M211 256h-75c-8.284 0-15-6.716-15-15s6.716-15 15-15h75c8.284 0 15 6.716 15 15S219.284 256 211 256zM211 316h-75c-8.284 0-15-6.716-15-15s6.716-15 15-15h75c8.284 0 15 6.716 15 15S219.284 316 211 316zM211 376h-75c-8.284 0-15-6.716-15-15s6.716-15 15-15h75c8.284 0 15 6.716 15 15S219.284 376 211 376zM376 196H271c-8.284 0-15-6.716-15-15s6.716-15 15-15h105c8.284 0 15 6.716 15 15S384.284 196 376 196zM376 256H271c-8.284 0-15-6.716-15-15s6.716-15 15-15h105c8.284 0 15 6.716 15 15S384.284 256 376 256zM316 316h-45c-8.284 0-15-6.716-15-15s6.716-15 15-15h45c8.284 0 15 6.716 15 15S324.284 316 316 316zM376 376H271c-8.284 0-15-6.716-15-15s6.716-15 15-15h105c8.284 0 15 6.716 15 15S384.284 376 376 376zM316 436H136c-8.284 0-15-6.716-15-15s6.716-15 15-15h180c8.284 0 15 6.716 15 15S324.284 436 316 436z"></path>
</svg>
